<svg xmlns="http://www.w3.org/2000/svg" viewBox="0 0 640 420">
  <rect width="640" height="420" fill="#f4dfb9"/>
  <rect x="65" y="95" width="510" height="230" rx="22" fill="#393734"/>
  <g fill="#f8f1df">
    <rect x="95" y="125" width="52" height="42" rx="6"/><rect x="156" y="125" width="52" height="42" rx="6"/><rect x="217" y="125" width="52" height="42" rx="6"/>
    <rect x="310" y="125" width="52" height="42" rx="6"/><rect x="371" y="125" width="52" height="42" rx="6"/><rect x="432" y="125" width="52" height="42" rx="6"/>
    <rect x="112" y="184" width="52" height="42" rx="6"/><rect x="173" y="184" width="52" height="42" rx="6"/><rect x="234" y="184" width="52" height="42" rx="6"/>
    <rect x="327" y="184" width="52" height="42" rx="6"/><rect x="388" y="184" width="52" height="42" rx="6"/><rect x="449" y="184" width="52" height="42" rx="6"/>
    <rect x="145" y="245" width="220" height="42" rx="8"/><rect x="390" y="245" width="88" height="42" rx="8"/>
  </g>
  <path d="M91 180h197M306 180h200" stroke="#e5bd58" stroke-width="8" stroke-linecap="round" opacity=".75"/>
  <text x="320" y="370" text-anchor="middle" font-family="Nunito, Arial" font-size="26" font-weight="800" fill="#5d4734">proximidad: grupos visibles</text>
</svg>
